<mxfile host="65bd71144e">
    <diagram id="kgpKYQtTHZ0yAKxKKP6v" name="Sequenzdiagramm">
        <mxGraphModel dx="2834" dy="1277" grid="1" gridSize="10" guides="1" tooltips="1" connect="1" arrows="1" fold="1" page="1" pageScale="1" pageWidth="827" pageHeight="1169" math="0" shadow="0">
            <root>
                <mxCell id="0"/>
                <mxCell id="1" parent="0"/>
                <mxCell id="z-gY4dRaENNabJSL0ozh-10" value=":Mitarbeiter" style="shape=umlLifeline;participant=umlActor;perimeter=lifelinePerimeter;whiteSpace=wrap;html=1;container=1;collapsible=0;recursiveResize=0;verticalAlign=top;spacingTop=36;outlineConnect=0;size=40;" parent="1" vertex="1">
                    <mxGeometry x="286" y="4" width="20" height="1156" as="geometry"/>
                </mxCell>
                <mxCell id="z-gY4dRaENNabJSL0ozh-14" value="" style="html=1;points=[];perimeter=orthogonalPerimeter;verticalAlign=bottom;" parent="z-gY4dRaENNabJSL0ozh-10" vertex="1">
                    <mxGeometry x="5" y="140" width="10" height="1000" as="geometry"/>
                </mxCell>
                <mxCell id="z-gY4dRaENNabJSL0ozh-13" value=":System" style="shape=umlLifeline;perimeter=lifelinePerimeter;whiteSpace=wrap;html=1;container=1;collapsible=0;recursiveResize=0;outlineConnect=0;" parent="1" vertex="1">
                    <mxGeometry x="486" y="14" width="100" height="1146" as="geometry"/>
                </mxCell>
                <mxCell id="3" style="edgeStyle=none;html=1;" parent="z-gY4dRaENNabJSL0ozh-13" source="z-gY4dRaENNabJSL0ozh-15" target="z-gY4dRaENNabJSL0ozh-13" edge="1">
                    <mxGeometry relative="1" as="geometry"/>
                </mxCell>
                <mxCell id="z-gY4dRaENNabJSL0ozh-15" value="" style="html=1;points=[];perimeter=orthogonalPerimeter;verticalAlign=bottom;" parent="z-gY4dRaENNabJSL0ozh-13" vertex="1">
                    <mxGeometry x="45" y="150" width="10" height="30" as="geometry"/>
                </mxCell>
                <mxCell id="z-gY4dRaENNabJSL0ozh-25" value="" style="html=1;points=[];perimeter=orthogonalPerimeter;verticalAlign=bottom;" parent="z-gY4dRaENNabJSL0ozh-13" vertex="1">
                    <mxGeometry x="45" y="260.26" width="10" height="869.74" as="geometry"/>
                </mxCell>
                <mxCell id="23" value="leitet weiter" style="html=1;verticalAlign=bottom;endArrow=block;fontSize=12;exitX=0.993;exitY=0.506;exitDx=0;exitDy=0;exitPerimeter=0;" parent="z-gY4dRaENNabJSL0ozh-13" target="z-gY4dRaENNabJSL0ozh-33" edge="1">
                    <mxGeometry width="80" relative="1" as="geometry">
                        <mxPoint x="59.92999999999995" y="1087.51808" as="sourcePoint"/>
                        <mxPoint x="147" y="1087" as="targetPoint"/>
                    </mxGeometry>
                </mxCell>
                <mxCell id="31" value="" style="html=1;points=[];perimeter=orthogonalPerimeter;fontSize=6;" parent="z-gY4dRaENNabJSL0ozh-13" vertex="1">
                    <mxGeometry x="50" y="1053" width="10" height="40" as="geometry"/>
                </mxCell>
                <mxCell id="32" value="&lt;font style=&quot;font-size: 6px&quot;&gt;&lt;span style=&quot;text-align: center&quot;&gt;Benachrichtigung&lt;/span&gt;&lt;br style=&quot;text-align: center&quot;&gt;&lt;span style=&quot;text-align: center&quot;&gt;erstellen (*)&lt;/span&gt;&lt;/font&gt;" style="edgeStyle=orthogonalEdgeStyle;html=1;align=left;spacingLeft=2;endArrow=block;rounded=0;entryX=1;entryY=0;fontSize=6;" parent="z-gY4dRaENNabJSL0ozh-13" target="31" edge="1">
                    <mxGeometry relative="1" as="geometry">
                        <mxPoint x="55" y="1033" as="sourcePoint"/>
                        <Array as="points">
                            <mxPoint x="85" y="1033"/>
                        </Array>
                    </mxGeometry>
                </mxCell>
                <mxCell id="33" value="" style="html=1;points=[];perimeter=orthogonalPerimeter;fontSize=6;" parent="z-gY4dRaENNabJSL0ozh-13" vertex="1">
                    <mxGeometry x="50" y="539" width="10" height="40" as="geometry"/>
                </mxCell>
                <mxCell id="34" value="&lt;font style=&quot;font-size: 6px&quot;&gt;&lt;span style=&quot;text-align: center&quot;&gt;Eingabe &lt;br&gt;Prüfen(*)&lt;/span&gt;&lt;/font&gt;" style="edgeStyle=orthogonalEdgeStyle;html=1;align=left;spacingLeft=2;endArrow=block;rounded=0;entryX=1;entryY=0;fontSize=6;" parent="z-gY4dRaENNabJSL0ozh-13" target="33" edge="1">
                    <mxGeometry relative="1" as="geometry">
                        <mxPoint x="55" y="519" as="sourcePoint"/>
                        <Array as="points">
                            <mxPoint x="85" y="519"/>
                        </Array>
                    </mxGeometry>
                </mxCell>
                <mxCell id="58" value="" style="html=1;points=[];perimeter=orthogonalPerimeter;fontSize=6;" parent="z-gY4dRaENNabJSL0ozh-13" vertex="1">
                    <mxGeometry x="50" y="959" width="10" height="40" as="geometry"/>
                </mxCell>
                <mxCell id="59" value="&lt;font style=&quot;font-size: 6px&quot;&gt;&lt;span style=&quot;text-align: center&quot;&gt;Eingabe &lt;br&gt;Prüfen(*)&lt;/span&gt;&lt;/font&gt;" style="edgeStyle=orthogonalEdgeStyle;html=1;align=left;spacingLeft=2;endArrow=block;rounded=0;entryX=1;entryY=0;fontSize=6;" parent="z-gY4dRaENNabJSL0ozh-13" target="58" edge="1">
                    <mxGeometry relative="1" as="geometry">
                        <mxPoint x="55" y="939" as="sourcePoint"/>
                        <Array as="points">
                            <mxPoint x="85" y="939"/>
                        </Array>
                    </mxGeometry>
                </mxCell>
                <mxCell id="z-gY4dRaENNabJSL0ozh-16" value="Dienstreiseantrag stellen" style="html=1;verticalAlign=bottom;endArrow=block;rounded=0;exitX=1.02;exitY=0.061;exitDx=0;exitDy=0;exitPerimeter=0;" parent="1" edge="1">
                    <mxGeometry width="80" relative="1" as="geometry">
                        <mxPoint x="301.20000000000005" y="164.48000000000002" as="sourcePoint"/>
                        <mxPoint x="531" y="164.48000000000002" as="targetPoint"/>
                    </mxGeometry>
                </mxCell>
                <mxCell id="z-gY4dRaENNabJSL0ozh-22" value="angemeldet" style="rounded=1;whiteSpace=wrap;html=1;" parent="1" vertex="1">
                    <mxGeometry x="243.5" y="84" width="105" height="20" as="geometry"/>
                </mxCell>
                <mxCell id="z-gY4dRaENNabJSL0ozh-23" value="loop (!Bestätigung)" style="shape=umlFrame;whiteSpace=wrap;html=1;width=130;height=20;" parent="1" vertex="1">
                    <mxGeometry x="153" y="238" width="530" height="896" as="geometry"/>
                </mxCell>
                <mxCell id="z-gY4dRaENNabJSL0ozh-17" value="Eingabeaufforderung" style="html=1;verticalAlign=bottom;endArrow=block;rounded=0;exitX=-0.024;exitY=0.949;exitDx=0;exitDy=0;exitPerimeter=0;" parent="1" source="z-gY4dRaENNabJSL0ozh-15" target="z-gY4dRaENNabJSL0ozh-14" edge="1">
                    <mxGeometry width="80" relative="1" as="geometry">
                        <mxPoint x="494" y="202" as="sourcePoint"/>
                        <mxPoint x="306" y="194" as="targetPoint"/>
                        <Array as="points"/>
                    </mxGeometry>
                </mxCell>
                <mxCell id="z-gY4dRaENNabJSL0ozh-26" value="Eingabe (datum=-, ort=-, zweck=-, mittel=-)" style="html=1;verticalAlign=bottom;endArrow=block;rounded=0;exitX=1.052;exitY=0.335;exitDx=0;exitDy=0;exitPerimeter=0;" parent="1" edge="1">
                    <mxGeometry x="0.0135" width="80" relative="1" as="geometry">
                        <mxPoint x="301.5200000000001" y="276.19999999999993" as="sourcePoint"/>
                        <mxPoint x="531" y="276.19999999999993" as="targetPoint"/>
                        <Array as="points"/>
                        <mxPoint as="offset"/>
                    </mxGeometry>
                </mxCell>
                <mxCell id="z-gY4dRaENNabJSL0ozh-27" value=":Schnittstelle &lt;br&gt;E-Mail /&amp;nbsp;SMS&amp;nbsp;" style="shape=umlLifeline;perimeter=lifelinePerimeter;whiteSpace=wrap;html=1;container=1;collapsible=0;recursiveResize=0;outlineConnect=0;" parent="1" vertex="1">
                    <mxGeometry x="613" y="14" width="100" height="1146" as="geometry"/>
                </mxCell>
                <mxCell id="z-gY4dRaENNabJSL0ozh-33" value="" style="html=1;points=[];perimeter=orthogonalPerimeter;verticalAlign=bottom;" parent="z-gY4dRaENNabJSL0ozh-27" vertex="1">
                    <mxGeometry x="45" y="1083" width="10" height="20" as="geometry"/>
                </mxCell>
                <mxCell id="z-gY4dRaENNabJSL0ozh-36" value="Angebot Kostenstelle&amp;nbsp;" style="html=1;verticalAlign=bottom;endArrow=block;rounded=0;exitX=0.001;exitY=0.089;exitDx=0;exitDy=0;exitPerimeter=0;" parent="1" edge="1">
                    <mxGeometry width="80" relative="1" as="geometry">
                        <mxPoint x="531.01" y="294.5068600000001" as="sourcePoint"/>
                        <mxPoint x="301" y="294.5068600000001" as="targetPoint"/>
                    </mxGeometry>
                </mxCell>
                <mxCell id="4" value="Wahl Kostenstelle" style="html=1;verticalAlign=bottom;endArrow=block;exitX=1.003;exitY=0.34;exitDx=0;exitDy=0;exitPerimeter=0;" parent="1" edge="1">
                    <mxGeometry width="80" relative="1" as="geometry">
                        <mxPoint x="301.03" y="364.20000000000005" as="sourcePoint"/>
                        <mxPoint x="531" y="364.20000000000005" as="targetPoint"/>
                        <Array as="points"/>
                    </mxGeometry>
                </mxCell>
                <mxCell id="5" value="Fordert zu Auswahl der Kostenstelle auf" style="html=1;verticalAlign=bottom;endArrow=block;exitX=0.001;exitY=0.183;exitDx=0;exitDy=0;exitPerimeter=0;" parent="1" edge="1">
                    <mxGeometry width="80" relative="1" as="geometry">
                        <mxPoint x="531.01" y="312.90242" as="sourcePoint"/>
                        <mxPoint x="301" y="312.90242" as="targetPoint"/>
                    </mxGeometry>
                </mxCell>
                <mxCell id="12" value="opt" style="shape=umlFrame;whiteSpace=wrap;html=1;width=40;height=20;" parent="1" vertex="1">
                    <mxGeometry x="163" y="734" width="390" height="61" as="geometry"/>
                </mxCell>
                <mxCell id="15" value="&lt;font style=&quot;font-size: 6px&quot;&gt;[Bahnkarte notwendig]&lt;/font&gt;" style="text;html=1;align=left;verticalAlign=middle;resizable=0;points=[];autosize=1;strokeColor=none;fillColor=none;" parent="1" vertex="1">
                    <mxGeometry x="173" y="754.5" width="80" height="20" as="geometry"/>
                </mxCell>
                <mxCell id="16" value="&lt;font style=&quot;font-size: 12px&quot;&gt;Bestellung Bahnkarte&lt;/font&gt;" style="html=1;verticalAlign=bottom;endArrow=block;fontSize=6;exitX=0.939;exitY=0.712;exitDx=0;exitDy=0;exitPerimeter=0;entryX=0.059;entryY=0.56;entryDx=0;entryDy=0;entryPerimeter=0;" parent="1" edge="1">
                    <mxGeometry width="80" relative="1" as="geometry">
                        <mxPoint x="300.39" y="780.24" as="sourcePoint"/>
                        <mxPoint x="531.59" y="780.9144" as="targetPoint"/>
                    </mxGeometry>
                </mxCell>
                <mxCell id="17" value="Zusammenfassung zeigen" style="html=1;verticalAlign=bottom;endArrow=block;fontSize=12;entryX=0.911;entryY=0.778;entryDx=0;entryDy=0;entryPerimeter=0;" parent="1" edge="1">
                    <mxGeometry width="80" relative="1" as="geometry">
                        <mxPoint x="531" y="1019.0400000000002" as="sourcePoint"/>
                        <mxPoint x="300.11" y="1019.0400000000002" as="targetPoint"/>
                    </mxGeometry>
                </mxCell>
                <mxCell id="24" value="Erfolgreiche erstellung bestätigen" style="html=1;verticalAlign=bottom;endArrow=block;fontSize=12;exitX=-0.035;exitY=0.819;exitDx=0;exitDy=0;exitPerimeter=0;" parent="1" edge="1">
                    <mxGeometry width="80" relative="1" as="geometry">
                        <mxPoint x="530.6500000000001" y="1121.87706" as="sourcePoint"/>
                        <mxPoint x="301" y="1121.87706" as="targetPoint"/>
                    </mxGeometry>
                </mxCell>
                <mxCell id="25" value="alt" style="shape=umlFrame;whiteSpace=wrap;html=1;width=40;height=20;" parent="1" vertex="1">
                    <mxGeometry x="163" y="333" width="390" height="190" as="geometry"/>
                </mxCell>
                <mxCell id="26" value="&lt;font style=&quot;font-size: 6px&quot;&gt;[Kostenplanung vorhanden]&lt;/font&gt;" style="text;html=1;align=left;verticalAlign=middle;resizable=0;points=[];autosize=1;strokeColor=none;fillColor=none;fontSize=12;" parent="1" vertex="1">
                    <mxGeometry x="173" y="353" width="90" height="20" as="geometry"/>
                </mxCell>
                <mxCell id="35" value="" style="endArrow=none;dashed=1;html=1;fontSize=6;entryX=0.002;entryY=0.277;entryDx=0;entryDy=0;entryPerimeter=0;exitX=0.999;exitY=0.274;exitDx=0;exitDy=0;exitPerimeter=0;" parent="1" source="25" target="25" edge="1">
                    <mxGeometry width="50" height="50" relative="1" as="geometry">
                        <mxPoint x="353" y="453" as="sourcePoint"/>
                        <mxPoint x="403" y="403" as="targetPoint"/>
                    </mxGeometry>
                </mxCell>
                <mxCell id="36" value="&lt;font style=&quot;font-size: 6px&quot;&gt;[else]&lt;/font&gt;" style="text;html=1;align=left;verticalAlign=middle;resizable=0;points=[];autosize=1;strokeColor=none;fillColor=none;fontSize=12;" parent="1" vertex="1">
                    <mxGeometry x="173" y="383" width="30" height="20" as="geometry"/>
                </mxCell>
                <mxCell id="37" value="&lt;font style=&quot;font-size: 12px&quot;&gt;Manuelle Eingabe anfragen&lt;/font&gt;" style="html=1;verticalAlign=bottom;endArrow=block;fontSize=6;exitX=1.017;exitY=0.412;exitDx=0;exitDy=0;exitPerimeter=0;" parent="1" edge="1">
                    <mxGeometry width="80" relative="1" as="geometry">
                        <mxPoint x="301.1700000000001" y="413.15999999999985" as="sourcePoint"/>
                        <mxPoint x="531" y="413.15999999999985" as="targetPoint"/>
                    </mxGeometry>
                </mxCell>
                <mxCell id="39" value="&lt;font style=&quot;font-size: 12px&quot;&gt;Eingabe (kostNr=-, kap=-, titel=-)&lt;/font&gt;" style="html=1;verticalAlign=bottom;endArrow=block;fontSize=6;exitX=1.028;exitY=0.45;exitDx=0;exitDy=0;exitPerimeter=0;" parent="1" edge="1">
                    <mxGeometry width="80" relative="1" as="geometry">
                        <mxPoint x="301.28" y="450" as="sourcePoint"/>
                        <mxPoint x="531" y="450" as="targetPoint"/>
                    </mxGeometry>
                </mxCell>
                <mxCell id="40" value="Erfragt (kostNr=-, kap=-, titel=-)" style="html=1;verticalAlign=bottom;endArrow=block;fontSize=12;exitX=0.055;exitY=0.297;exitDx=0;exitDy=0;exitPerimeter=0;" parent="1" edge="1">
                    <mxGeometry width="80" relative="1" as="geometry">
                        <mxPoint x="531.5500000000001" y="431.47278000000006" as="sourcePoint"/>
                        <mxPoint x="301" y="431.47278000000006" as="targetPoint"/>
                    </mxGeometry>
                </mxCell>
                <mxCell id="41" value="Angebot Verantwortlicher (verantw=-)" style="html=1;verticalAlign=bottom;endArrow=block;fontSize=12;exitX=0.055;exitY=0.371;exitDx=0;exitDy=0;exitPerimeter=0;" parent="1" edge="1">
                    <mxGeometry width="80" relative="1" as="geometry">
                        <mxPoint x="531.5500000000001" y="468.6335399999999" as="sourcePoint"/>
                        <mxPoint x="301" y="468.6335399999999" as="targetPoint"/>
                    </mxGeometry>
                </mxCell>
                <mxCell id="42" value="Fordert Bestätigung an" style="html=1;verticalAlign=bottom;endArrow=block;fontSize=12;exitX=0.074;exitY=0.409;exitDx=0;exitDy=0;exitPerimeter=0;" parent="1" edge="1">
                    <mxGeometry width="80" relative="1" as="geometry">
                        <mxPoint x="531.7399999999999" y="487.28366000000005" as="sourcePoint"/>
                        <mxPoint x="301" y="487.28366000000005" as="targetPoint"/>
                    </mxGeometry>
                </mxCell>
                <mxCell id="43" value="Bestätigung (verantw=-)" style="html=1;verticalAlign=bottom;endArrow=block;fontSize=12;exitX=1.022;exitY=0.574;exitDx=0;exitDy=0;exitPerimeter=0;" parent="1" edge="1">
                    <mxGeometry width="80" relative="1" as="geometry">
                        <mxPoint x="301.22" y="506.32000000000005" as="sourcePoint"/>
                        <mxPoint x="531" y="506.32000000000005" as="targetPoint"/>
                    </mxGeometry>
                </mxCell>
                <mxCell id="44" value="opt" style="shape=umlFrame;whiteSpace=wrap;html=1;width=40;height=20;" parent="1" vertex="1">
                    <mxGeometry x="163" y="604" width="390" height="50" as="geometry"/>
                </mxCell>
                <mxCell id="45" value="&lt;font style=&quot;font-size: 6px&quot;&gt;[Eingabe unvollständig]&lt;/font&gt;" style="text;html=1;align=left;verticalAlign=middle;resizable=0;points=[];autosize=1;strokeColor=none;fillColor=none;" parent="1" vertex="1">
                    <mxGeometry x="173" y="624.5" width="80" height="20" as="geometry"/>
                </mxCell>
                <mxCell id="46" value="Eingabeaufforderung (fehlend=-)" style="html=1;verticalAlign=bottom;endArrow=block;fontSize=12;exitX=0;exitY=0.614;exitDx=0;exitDy=0;exitPerimeter=0;" parent="1" edge="1">
                    <mxGeometry width="80" relative="1" as="geometry">
                        <mxPoint x="531" y="624.6003599999999" as="sourcePoint"/>
                        <mxPoint x="301" y="624.6003599999999" as="targetPoint"/>
                    </mxGeometry>
                </mxCell>
                <mxCell id="47" value="Eingabe Daten (fehlend=-)" style="html=1;verticalAlign=bottom;endArrow=block;fontSize=12;exitX=0.964;exitY=0.732;exitDx=0;exitDy=0;exitPerimeter=0;" parent="1" edge="1">
                    <mxGeometry width="80" relative="1" as="geometry">
                        <mxPoint x="300.6400000000001" y="643.52" as="sourcePoint"/>
                        <mxPoint x="531" y="643.52" as="targetPoint"/>
                        <mxPoint as="offset"/>
                    </mxGeometry>
                </mxCell>
                <mxCell id="48" value="" style="html=1;points=[];perimeter=orthogonalPerimeter;fontSize=6;" parent="1" vertex="1">
                    <mxGeometry x="536" y="683" width="10" height="40" as="geometry"/>
                </mxCell>
                <mxCell id="49" value="&lt;font style=&quot;font-size: 6px&quot;&gt;&lt;span style=&quot;text-align: center&quot;&gt;Eingabe &lt;br&gt;Prüfen(*)&lt;/span&gt;&lt;/font&gt;" style="edgeStyle=orthogonalEdgeStyle;html=1;align=left;spacingLeft=2;endArrow=block;rounded=0;entryX=1;entryY=0;fontSize=6;" parent="1" target="48" edge="1">
                    <mxGeometry relative="1" as="geometry">
                        <mxPoint x="541" y="663" as="sourcePoint"/>
                        <Array as="points">
                            <mxPoint x="571" y="663"/>
                        </Array>
                    </mxGeometry>
                </mxCell>
                <mxCell id="50" value="alt" style="shape=umlFrame;whiteSpace=wrap;html=1;width=40;height=20;" parent="1" vertex="1">
                    <mxGeometry x="163" y="804" width="390" height="140" as="geometry"/>
                </mxCell>
                <mxCell id="51" value="&lt;font style=&quot;font-size: 6px&quot;&gt;[Inhaltsprüfung]&lt;/font&gt;" style="text;html=1;align=left;verticalAlign=middle;resizable=0;points=[];autosize=1;strokeColor=none;fillColor=none;" parent="1" vertex="1">
                    <mxGeometry x="173" y="824" width="60" height="20" as="geometry"/>
                </mxCell>
                <mxCell id="52" value="" style="endArrow=none;dashed=1;html=1;fontSize=6;exitX=1;exitY=0.422;exitDx=0;exitDy=0;exitPerimeter=0;entryX=0;entryY=0.485;entryDx=0;entryDy=0;entryPerimeter=0;" parent="1" target="50" edge="1">
                    <mxGeometry width="50" height="50" relative="1" as="geometry">
                        <mxPoint x="553" y="873.1800000000001" as="sourcePoint"/>
                        <mxPoint x="223" y="874" as="targetPoint"/>
                    </mxGeometry>
                </mxCell>
                <mxCell id="53" value="Keine Eingabenbestätigung" style="html=1;verticalAlign=bottom;endArrow=block;fontSize=12;exitX=1.025;exitY=0.671;exitDx=0;exitDy=0;exitPerimeter=0;" parent="1" edge="1">
                    <mxGeometry width="80" relative="1" as="geometry">
                        <mxPoint x="301.25" y="825.1299999999999" as="sourcePoint"/>
                        <mxPoint x="531" y="825.1299999999999" as="targetPoint"/>
                    </mxGeometry>
                </mxCell>
                <mxCell id="54" value="Angebot bisheriger Angaben&amp;nbsp;&lt;br&gt;(angaben=-)" style="html=1;verticalAlign=bottom;endArrow=block;fontSize=12;exitX=-0.15;exitY=0.667;exitDx=0;exitDy=0;exitPerimeter=0;" parent="1" edge="1">
                    <mxGeometry x="0.0197" width="80" relative="1" as="geometry">
                        <mxPoint x="529.5" y="861.3865799999999" as="sourcePoint"/>
                        <mxPoint x="301" y="861.3865799999999" as="targetPoint"/>
                        <mxPoint as="offset"/>
                    </mxGeometry>
                </mxCell>
                <mxCell id="55" value="&lt;font style=&quot;font-size: 6px&quot;&gt;[else]&lt;/font&gt;" style="text;html=1;align=left;verticalAlign=middle;resizable=0;points=[];autosize=1;strokeColor=none;fillColor=none;" parent="1" vertex="1">
                    <mxGeometry x="173" y="874" width="30" height="20" as="geometry"/>
                </mxCell>
                <mxCell id="56" value="Korrigierung bisheriger Angaben" style="html=1;verticalAlign=bottom;endArrow=block;fontSize=12;exitX=1.017;exitY=0.737;exitDx=0;exitDy=0;exitPerimeter=0;" parent="1" edge="1">
                    <mxGeometry width="80" relative="1" as="geometry">
                        <mxPoint x="301.16999999999996" y="903.1099999999999" as="sourcePoint"/>
                        <mxPoint x="531" y="903.1099999999999" as="targetPoint"/>
                    </mxGeometry>
                </mxCell>
                <mxCell id="57" value="Gibt Antrag frei" style="html=1;verticalAlign=bottom;endArrow=block;fontSize=12;exitX=1.017;exitY=0.737;exitDx=0;exitDy=0;exitPerimeter=0;" parent="1" edge="1">
                    <mxGeometry width="80" relative="1" as="geometry">
                        <mxPoint x="301.16999999999996" y="923.1099999999999" as="sourcePoint"/>
                        <mxPoint x="531" y="923.1099999999999" as="targetPoint"/>
                    </mxGeometry>
                </mxCell>
                <mxCell id="60" value="Bestätigt Eingabe" style="html=1;verticalAlign=bottom;endArrow=block;fontSize=12;exitX=1.072;exitY=0.922;exitDx=0;exitDy=0;exitPerimeter=0;" parent="1" edge="1">
                    <mxGeometry width="80" relative="1" as="geometry">
                        <mxPoint x="301.7199999999999" y="1038.6599999999999" as="sourcePoint"/>
                        <mxPoint x="533" y="1039" as="targetPoint"/>
                    </mxGeometry>
                </mxCell>
            </root>
        </mxGraphModel>
    </diagram>
</mxfile>